<mxfile host="Electron" agent="Mozilla/5.0 (Macintosh; Intel Mac OS X 10_15_7) AppleWebKit/537.36 (KHTML, like Gecko) draw.io/28.1.2 Chrome/138.0.7204.243 Electron/37.4.0 Safari/537.36" version="28.1.2" pages="2">
  <diagram id="1zcTAVt1k4KSup7FvAfL" name="Roadmap">
    <mxGraphModel dx="4522" dy="3757" grid="1" gridSize="10" guides="1" tooltips="1" connect="1" arrows="1" fold="1" page="1" pageScale="1" pageWidth="3300" pageHeight="2339" math="0" shadow="0">
      <root>
        <mxCell id="3D7FDG2aXA9G618_Kong-0" />
        <mxCell id="3D7FDG2aXA9G618_Kong-1" parent="3D7FDG2aXA9G618_Kong-0" />
        <mxCell id="wGroBH12Sy7-OgBsN0fJ-2" value="" style="shape=rect;fillColor=#fff2cc;strokeColor=none;fontSize=24;html=1;whiteSpace=wrap;align=left;verticalAlign=top;spacing=5;rounded=0;fontFamily=Helvetica;" parent="3D7FDG2aXA9G618_Kong-1" vertex="1">
          <mxGeometry x="-2500" y="-930" width="1860" height="180" as="geometry" />
        </mxCell>
        <mxCell id="wGroBH12Sy7-OgBsN0fJ-4" value="" style="shape=rect;fillColor=#fff2cc;strokeColor=none;fontSize=24;html=1;whiteSpace=wrap;align=left;verticalAlign=top;spacing=5;rounded=0;fontFamily=Helvetica;" parent="3D7FDG2aXA9G618_Kong-1" vertex="1">
          <mxGeometry x="-2500" y="-1146.8" width="1860" height="196.8" as="geometry" />
        </mxCell>
        <mxCell id="wGroBH12Sy7-OgBsN0fJ-5" value="T1 -&amp;nbsp;&lt;span style=&quot;background-color: transparent; color: light-dark(rgb(0, 0, 0), rgb(255, 255, 255));&quot;&gt;Проектирование UX/UI для просмотра ставок&lt;/span&gt;" style="shape=rect;fillColor=#ffe6cc;strokeColor=#d79b00;fontSize=16;html=1;whiteSpace=wrap;align=left;verticalAlign=top;spacing=5;rounded=0;fontFamily=Helvetica;" parent="3D7FDG2aXA9G618_Kong-1" vertex="1">
          <mxGeometry x="-2480" y="-1120" width="330" height="60" as="geometry" />
        </mxCell>
        <mxCell id="wGroBH12Sy7-OgBsN0fJ-6" value="&lt;span style=&quot;text-align: left;&quot;&gt;T2 -&amp;nbsp;&lt;/span&gt;&lt;span style=&quot;font-family: &amp;quot;Helvetica Neue&amp;quot;; text-align: start; background-color: transparent; color: light-dark(rgb(0, 0, 0), rgb(255, 255, 255));&quot;&gt;Интеграция с системой колл-центра&lt;/span&gt;" style="shape=rect;fillColor=#ffe6cc;strokeColor=#d79b00;fontSize=16;html=1;whiteSpace=wrap;align=center;verticalAlign=top;spacing=5;rounded=0;fontFamily=Helvetica;" parent="3D7FDG2aXA9G618_Kong-1" vertex="1">
          <mxGeometry x="-2150" y="-1060" width="570" height="40" as="geometry" />
        </mxCell>
        <mxCell id="wGroBH12Sy7-OgBsN0fJ-7" value="Система колл-центра" style="rounded=0;whiteSpace=wrap;html=1;fillColor=#f5f5f5;fontColor=#333333;strokeColor=#666666;fontSize=18;fontFamily=Helvetica;" parent="3D7FDG2aXA9G618_Kong-1" vertex="1">
          <mxGeometry x="-2630" y="-1146.8" width="120" height="196.8" as="geometry" />
        </mxCell>
        <mxCell id="wGroBH12Sy7-OgBsN0fJ-8" value="Система работы с депозитами" style="rounded=0;whiteSpace=wrap;html=1;fillColor=#f5f5f5;fontColor=#333333;strokeColor=#666666;fontSize=18;fontFamily=Helvetica;" parent="3D7FDG2aXA9G618_Kong-1" vertex="1">
          <mxGeometry x="-2630" y="-930" width="120" height="180" as="geometry" />
        </mxCell>
        <mxCell id="wGroBH12Sy7-OgBsN0fJ-9" value="Q3" style="shape=step;perimeter=stepPerimeter;whiteSpace=wrap;html=1;fixedSize=1;size=10;fillColor=#f5f5f5;strokeColor=#666666;fontSize=18;fontStyle=1;align=center;rounded=0;fontColor=#333333;fontFamily=Helvetica;" parent="3D7FDG2aXA9G618_Kong-1" vertex="1">
          <mxGeometry x="-2500" y="-1240" width="930" height="74.4" as="geometry" />
        </mxCell>
        <mxCell id="wGroBH12Sy7-OgBsN0fJ-11" value="&lt;p data-pm-slice=&quot;1 1 [&amp;quot;list&amp;quot;,{&amp;quot;spread&amp;quot;:false,&amp;quot;start&amp;quot;:5240,&amp;quot;end&amp;quot;:5511},&amp;quot;regular_list_item&amp;quot;,{&amp;quot;start&amp;quot;:5309,&amp;quot;end&amp;quot;:5385}]&quot;&gt;&lt;font&gt;&amp;nbsp;Т8 -&amp;nbsp;&lt;span style=&quot;font-family: &amp;quot;Helvetica Neue&amp;quot;; text-align: start; background-color: transparent; color: light-dark(rgb(0, 0, 0), rgb(255, 255, 255));&quot;&gt;Разработка механизма формирования файлов ставок&lt;/span&gt;&lt;/font&gt;&lt;/p&gt;" style="shape=rect;fillColor=#ffe6cc;strokeColor=#d79b00;fontSize=16;html=1;whiteSpace=wrap;align=center;verticalAlign=top;spacing=5;rounded=0;fontFamily=Helvetica;" parent="3D7FDG2aXA9G618_Kong-1" vertex="1">
          <mxGeometry x="-2180" y="-810" width="590" height="50" as="geometry" />
        </mxCell>
        <mxCell id="wGroBH12Sy7-OgBsN0fJ-15" value="&lt;p data-pm-slice=&quot;1 1 [&amp;quot;list&amp;quot;,{&amp;quot;spread&amp;quot;:false,&amp;quot;start&amp;quot;:5240,&amp;quot;end&amp;quot;:5511},&amp;quot;regular_list_item&amp;quot;,{&amp;quot;start&amp;quot;:5240,&amp;quot;end&amp;quot;:5308}]&quot;&gt;&lt;font&gt;&amp;nbsp;Т7 -&amp;nbsp;&lt;span style=&quot;font-family: &amp;quot;Helvetica Neue&amp;quot;; text-align: start; background-color: transparent; color: light-dark(rgb(0, 0, 0), rgb(255, 255, 255));&quot;&gt;Определение и утверждение формата данных для экспорта&lt;/span&gt;&lt;/font&gt;&lt;/p&gt;" style="shape=rect;fillColor=#ffe6cc;strokeColor=#d79b00;fontSize=16;html=1;whiteSpace=wrap;align=center;verticalAlign=top;spacing=5;rounded=0;fontFamily=Helvetica;" parent="3D7FDG2aXA9G618_Kong-1" vertex="1">
          <mxGeometry x="-2490" y="-920" width="310" height="100" as="geometry" />
        </mxCell>
        <mxCell id="EaMGPEsRvCoEwAuD_jiu-1" value="Q4" style="shape=step;perimeter=stepPerimeter;whiteSpace=wrap;html=1;fixedSize=1;size=10;fillColor=#f5f5f5;strokeColor=#666666;fontSize=18;fontStyle=1;align=center;rounded=0;fontColor=#333333;fontFamily=Helvetica;" parent="3D7FDG2aXA9G618_Kong-1" vertex="1">
          <mxGeometry x="-1570" y="-1240" width="930" height="74.4" as="geometry" />
        </mxCell>
        <mxCell id="EaMGPEsRvCoEwAuD_jiu-2" value="&lt;p data-pm-slice=&quot;1 1 [&amp;quot;list&amp;quot;,{&amp;quot;spread&amp;quot;:false,&amp;quot;start&amp;quot;:6173,&amp;quot;end&amp;quot;:6444},&amp;quot;regular_list_item&amp;quot;,{&amp;quot;start&amp;quot;:6319,&amp;quot;end&amp;quot;:6396}]&quot;&gt;&lt;font style=&quot;font-size: 16px;&quot;&gt;Т9 -&amp;nbsp;&lt;span style=&quot;font-family: &amp;quot;Helvetica Neue&amp;quot;; text-align: start; background-color: transparent; color: light-dark(rgb(0, 0, 0), rgb(255, 255, 255));&quot;&gt;Настройка автоматизированного экспорта по расписанию и шифрование&lt;/span&gt;&lt;/font&gt;&lt;/p&gt;" style="shape=rect;fillColor=#ffe6cc;strokeColor=#d79b00;fontSize=18;html=1;whiteSpace=wrap;align=center;verticalAlign=top;spacing=5;rounded=0;fontFamily=Helvetica;" parent="3D7FDG2aXA9G618_Kong-1" vertex="1">
          <mxGeometry x="-1570" y="-920" width="580" height="70" as="geometry" />
        </mxCell>
        <mxCell id="EaMGPEsRvCoEwAuD_jiu-3" value="&lt;span data-start=&quot;994&quot; data-end=&quot;1029&quot;&gt;Система партнёрского кол-центра&lt;/span&gt;" style="rounded=0;whiteSpace=wrap;html=1;fillColor=#f5f5f5;fontColor=#333333;strokeColor=#666666;fontSize=18;fontFamily=Helvetica;" parent="3D7FDG2aXA9G618_Kong-1" vertex="1">
          <mxGeometry x="-2630" y="-730" width="120" height="180" as="geometry" />
        </mxCell>
        <mxCell id="EaMGPEsRvCoEwAuD_jiu-4" value="" style="shape=rect;fillColor=#fff2cc;strokeColor=none;fontSize=24;html=1;whiteSpace=wrap;align=left;verticalAlign=top;spacing=5;rounded=0;fontFamily=Helvetica;" parent="3D7FDG2aXA9G618_Kong-1" vertex="1">
          <mxGeometry x="-2500" y="-730" width="1860" height="180" as="geometry" />
        </mxCell>
        <mxCell id="EaMGPEsRvCoEwAuD_jiu-5" value="&lt;font style=&quot;font-size: 16px;&quot;&gt;Т12 -&amp;nbsp;&lt;span style=&quot;font-family: &amp;quot;Helvetica Neue&amp;quot;; background-color: transparent; color: light-dark(rgb(0, 0, 0), rgb(255, 255, 255));&quot;&gt;Утверждение формата и метода обмена данными с партнером&lt;/span&gt;&lt;/font&gt;" style="shape=rect;fillColor=#ffe6cc;strokeColor=#d79b00;fontSize=18;html=1;whiteSpace=wrap;align=left;verticalAlign=top;spacing=5;rounded=0;fontFamily=Helvetica;" parent="3D7FDG2aXA9G618_Kong-1" vertex="1">
          <mxGeometry x="-2485" y="-710" width="495" height="70" as="geometry" />
        </mxCell>
        <mxCell id="EaMGPEsRvCoEwAuD_jiu-6" value="&lt;font style=&quot;font-size: 16px;&quot;&gt;Т13 -&amp;nbsp;&lt;span style=&quot;font-family: &amp;quot;Helvetica Neue&amp;quot;; background-color: transparent; color: light-dark(rgb(0, 0, 0), rgb(255, 255, 255));&quot;&gt;Организация процесса ручной передачи данных&lt;/span&gt;&lt;/font&gt;" style="shape=rect;fillColor=#ffe6cc;strokeColor=#d79b00;fontSize=18;html=1;whiteSpace=wrap;align=left;verticalAlign=top;spacing=5;rounded=0;fontFamily=Helvetica;" parent="3D7FDG2aXA9G618_Kong-1" vertex="1">
          <mxGeometry x="-1980" y="-640" width="390" height="70" as="geometry" />
        </mxCell>
        <mxCell id="EaMGPEsRvCoEwAuD_jiu-7" value="&lt;font style=&quot;font-size: 16px;&quot;&gt;Т15 -&amp;nbsp;&lt;span style=&quot;font-family: &amp;quot;Helvetica Neue&amp;quot;; background-color: transparent; color: light-dark(rgb(0, 0, 0), rgb(255, 255, 255));&quot;&gt;Реализация механизмов защиты и аудита передаваемых данных&lt;/span&gt;&lt;/font&gt;" style="shape=rect;fillColor=#ffe6cc;strokeColor=#d79b00;fontSize=18;html=1;whiteSpace=wrap;align=left;verticalAlign=top;spacing=5;rounded=0;fontFamily=Helvetica;" parent="3D7FDG2aXA9G618_Kong-1" vertex="1">
          <mxGeometry x="-1570" y="-640" width="570" height="70" as="geometry" />
        </mxCell>
        <mxCell id="EaMGPEsRvCoEwAuD_jiu-8" value="&lt;font style=&quot;font-size: 16px;&quot;&gt;Т16 -&amp;nbsp;&lt;span style=&quot;font-family: &amp;quot;Helvetica Neue&amp;quot;; background-color: transparent; color: light-dark(rgb(0, 0, 0), rgb(255, 255, 255));&quot;&gt;Тестирование и ввод в промышленную эксплуатацию&lt;/span&gt;&lt;/font&gt;" style="shape=rect;fillColor=#ffe6cc;strokeColor=#d79b00;fontSize=18;html=1;whiteSpace=wrap;align=left;verticalAlign=top;spacing=5;rounded=0;fontFamily=Helvetica;" parent="3D7FDG2aXA9G618_Kong-1" vertex="1">
          <mxGeometry x="-980" y="-710" width="320" height="60" as="geometry" />
        </mxCell>
        <mxCell id="EaMGPEsRvCoEwAuD_jiu-9" value="&lt;font style=&quot;font-size: 16px;&quot;&gt;Т17 -&amp;nbsp;&lt;span style=&quot;font-family: &amp;quot;Helvetica Neue&amp;quot;; background-color: transparent; color: light-dark(rgb(0, 0, 0), rgb(255, 255, 255));&quot;&gt;Формализация SLA и процедур обновления&lt;/span&gt;&lt;/font&gt;" style="shape=rect;fillColor=#ffe6cc;strokeColor=#d79b00;fontSize=18;html=1;whiteSpace=wrap;align=left;verticalAlign=top;spacing=5;rounded=0;fontFamily=Helvetica;" parent="3D7FDG2aXA9G618_Kong-1" vertex="1">
          <mxGeometry x="-980" y="-640" width="320" height="70" as="geometry" />
        </mxCell>
        <mxCell id="EaMGPEsRvCoEwAuD_jiu-11" value="&lt;p data-pm-slice=&quot;1 1 [&amp;quot;list&amp;quot;,{&amp;quot;spread&amp;quot;:false,&amp;quot;start&amp;quot;:6173,&amp;quot;end&amp;quot;:6444},&amp;quot;regular_list_item&amp;quot;,{&amp;quot;start&amp;quot;:6319,&amp;quot;end&amp;quot;:6396}]&quot;&gt;&lt;font style=&quot;font-size: 16px;&quot;&gt;&lt;span style=&quot;text-align: left;&quot;&gt;Т10 -&amp;nbsp;&lt;/span&gt;&lt;span style=&quot;font-family: &amp;quot;Helvetica Neue&amp;quot;; text-align: start; background-color: transparent; color: light-dark(rgb(0, 0, 0), rgb(255, 255, 255));&quot;&gt;Промышленное развертывание системы&lt;/span&gt;&lt;/font&gt;&lt;/p&gt;" style="shape=rect;fillColor=#ffe6cc;strokeColor=#d79b00;fontSize=18;html=1;whiteSpace=wrap;align=center;verticalAlign=top;spacing=5;rounded=0;fontFamily=Helvetica;" parent="3D7FDG2aXA9G618_Kong-1" vertex="1">
          <mxGeometry x="-980" y="-930" width="330" height="80" as="geometry" />
        </mxCell>
        <mxCell id="EaMGPEsRvCoEwAuD_jiu-12" value="&lt;p data-pm-slice=&quot;1 1 [&amp;quot;list&amp;quot;,{&amp;quot;spread&amp;quot;:false,&amp;quot;start&amp;quot;:6173,&amp;quot;end&amp;quot;:6444},&amp;quot;regular_list_item&amp;quot;,{&amp;quot;start&amp;quot;:6319,&amp;quot;end&amp;quot;:6396}]&quot;&gt;Т11 -&amp;nbsp;&lt;span style=&quot;font-family: &amp;quot;Helvetica Neue&amp;quot;; text-align: start; background-color: transparent; color: light-dark(rgb(0, 0, 0), rgb(255, 255, 255));&quot;&gt;Внедрение системы мониторинга процессов выгрузки&lt;/span&gt;&lt;/p&gt;" style="shape=rect;fillColor=#ffe6cc;strokeColor=#d79b00;fontSize=16;html=1;whiteSpace=wrap;align=center;verticalAlign=top;spacing=5;rounded=0;fontFamily=Helvetica;" parent="3D7FDG2aXA9G618_Kong-1" vertex="1">
          <mxGeometry x="-1000" y="-840" width="350" height="80" as="geometry" />
        </mxCell>
        <mxCell id="EaMGPEsRvCoEwAuD_jiu-14" value="&lt;div style=&quot;text-align: left;&quot;&gt;Т3 -&amp;nbsp;&lt;span style=&quot;font-family: &amp;quot;Helvetica Neue&amp;quot;; background-color: transparent; color: light-dark(rgb(0, 0, 0), rgb(255, 255, 255));&quot;&gt;Реализация системы авторизации и разграничения прав доступа&lt;/span&gt;&lt;/div&gt;" style="shape=rect;fillColor=#ffe6cc;strokeColor=#d79b00;fontSize=16;html=1;whiteSpace=wrap;align=center;verticalAlign=top;spacing=5;rounded=0;fontFamily=Helvetica;" parent="3D7FDG2aXA9G618_Kong-1" vertex="1">
          <mxGeometry x="-2150" y="-1000" width="570" height="40" as="geometry" />
        </mxCell>
        <mxCell id="EaMGPEsRvCoEwAuD_jiu-15" value="&lt;font style=&quot;font-size: 16px;&quot;&gt;&lt;span style=&quot;text-align: left;&quot;&gt;T4&amp;nbsp;&amp;nbsp;-&amp;nbsp;&lt;/span&gt;&lt;span style=&quot;font-family: &amp;quot;Helvetica Neue&amp;quot;; text-align: start; background-color: transparent; color: light-dark(rgb(0, 0, 0), rgb(255, 255, 255));&quot;&gt;Пилотное тестирование с группой сотрудников&lt;/span&gt;&lt;/font&gt;" style="shape=rect;fillColor=#ffe6cc;strokeColor=#d79b00;fontSize=18;html=1;whiteSpace=wrap;align=center;verticalAlign=top;spacing=5;rounded=0;fontFamily=Helvetica;" parent="3D7FDG2aXA9G618_Kong-1" vertex="1">
          <mxGeometry x="-1565" y="-1060" width="465" height="50" as="geometry" />
        </mxCell>
        <mxCell id="EaMGPEsRvCoEwAuD_jiu-16" value="&lt;font style=&quot;font-size: 16px;&quot;&gt;&lt;span style=&quot;text-align: left;&quot;&gt;T5&amp;nbsp; -&amp;nbsp;&lt;/span&gt;&lt;span style=&quot;font-family: &amp;quot;Helvetica Neue&amp;quot;; text-align: start; background-color: transparent; color: light-dark(rgb(0, 0, 0), rgb(255, 255, 255));&quot;&gt;Проведение обучения операторов&lt;/span&gt;&lt;/font&gt;" style="shape=rect;fillColor=#ffe6cc;strokeColor=#d79b00;fontSize=18;html=1;whiteSpace=wrap;align=center;verticalAlign=top;spacing=5;rounded=0;fontFamily=Helvetica;" parent="3D7FDG2aXA9G618_Kong-1" vertex="1">
          <mxGeometry x="-1100" y="-1130" width="450" height="50" as="geometry" />
        </mxCell>
        <mxCell id="EaMGPEsRvCoEwAuD_jiu-17" value="&lt;font style=&quot;font-size: 16px;&quot;&gt;&lt;span style=&quot;text-align: left;&quot;&gt;T6&amp;nbsp; -&amp;nbsp;&lt;/span&gt;&lt;span style=&quot;font-family: &amp;quot;Helvetica Neue&amp;quot;; text-align: start; background-color: transparent; color: light-dark(rgb(0, 0, 0), rgb(255, 255, 255));&quot;&gt;Полномасштабное внедрение в эксплуатацию&lt;/span&gt;&lt;/font&gt;" style="shape=rect;fillColor=#ffe6cc;strokeColor=#d79b00;fontSize=18;html=1;whiteSpace=wrap;align=center;verticalAlign=top;spacing=5;rounded=0;fontFamily=Helvetica;" parent="3D7FDG2aXA9G618_Kong-1" vertex="1">
          <mxGeometry x="-1100" y="-1000" width="450" height="40" as="geometry" />
        </mxCell>
        <mxCell id="EaMGPEsRvCoEwAuD_jiu-18" value="&lt;font style=&quot;font-size: 16px;&quot;&gt;Т14 -&amp;nbsp;&lt;span style=&quot;font-family: &amp;quot;Helvetica Neue&amp;quot;; background-color: transparent; color: light-dark(rgb(0, 0, 0), rgb(255, 255, 255));&quot;&gt;Внедрение регулярной автоматизированной отправки&lt;/span&gt;&lt;/font&gt;" style="shape=rect;fillColor=#ffe6cc;strokeColor=#d79b00;fontSize=18;html=1;whiteSpace=wrap;align=left;verticalAlign=top;spacing=5;rounded=0;fontFamily=Helvetica;" parent="3D7FDG2aXA9G618_Kong-1" vertex="1">
          <mxGeometry x="-1570" y="-720" width="570" height="70" as="geometry" />
        </mxCell>
      </root>
    </mxGraphModel>
  </diagram>
  <diagram id="6faDem5PxRRIMGQd80wj" name="Roadmap_change">
    <mxGraphModel grid="1" page="1" gridSize="10" guides="1" tooltips="1" connect="1" arrows="1" fold="1" pageScale="1" pageWidth="3300" pageHeight="2339" math="0" shadow="0">
      <root>
        <mxCell id="0" />
        <mxCell id="1" parent="0" />
        <mxCell id="QlwB00z0-otb056kdUWZ-19" value="" style="shape=rect;fillColor=#fff2cc;strokeColor=none;fontSize=24;html=1;whiteSpace=wrap;align=left;verticalAlign=top;spacing=5;rounded=0;" vertex="1" parent="1">
          <mxGeometry x="-2500" y="-530" width="1620" height="190" as="geometry" />
        </mxCell>
        <mxCell id="QlwB00z0-otb056kdUWZ-18" value="" style="shape=rect;fillColor=#fff2cc;strokeColor=none;fontSize=24;html=1;whiteSpace=wrap;align=left;verticalAlign=top;spacing=5;rounded=0;" vertex="1" parent="1">
          <mxGeometry x="-2500" y="-730" width="1620" height="180" as="geometry" />
        </mxCell>
        <mxCell id="QlwB00z0-otb056kdUWZ-17" value="" style="shape=rect;fillColor=#fff2cc;strokeColor=none;fontSize=24;html=1;whiteSpace=wrap;align=left;verticalAlign=top;spacing=5;rounded=0;" vertex="1" parent="1">
          <mxGeometry x="-2500" y="-930" width="1610" height="180" as="geometry" />
        </mxCell>
        <mxCell id="QlwB00z0-otb056kdUWZ-3" value="" style="shape=rect;fillColor=#fff2cc;strokeColor=none;fontSize=24;html=1;whiteSpace=wrap;align=left;verticalAlign=top;spacing=5;rounded=0;" vertex="1" parent="1">
          <mxGeometry x="-2500" y="-1146.8" width="1610" height="196.8" as="geometry" />
        </mxCell>
        <mxCell id="QlwB00z0-otb056kdUWZ-4" value="T1 - API сервиса интеграции депозитов АБС" style="shape=rect;fillColor=#ffe6cc;strokeColor=#d79b00;fontSize=18;html=1;whiteSpace=wrap;align=left;verticalAlign=top;spacing=5;rounded=0;" vertex="1" parent="1">
          <mxGeometry x="-2480" y="-1120" width="390" height="50" as="geometry" />
        </mxCell>
        <mxCell id="QlwB00z0-otb056kdUWZ-5" value="T2 - Передача файлов на SFTP-сервер" style="shape=rect;fillColor=#ffe6cc;strokeColor=#d79b00;fontSize=18;html=1;whiteSpace=wrap;align=center;verticalAlign=top;spacing=5;rounded=0;" vertex="1" parent="1">
          <mxGeometry x="-2120" y="-1040" width="550" height="60" as="geometry" />
        </mxCell>
        <mxCell id="QlwB00z0-otb056kdUWZ-6" value="АБС&lt;div&gt;Сервис интеграции депозитов&lt;/div&gt;" style="rounded=0;whiteSpace=wrap;html=1;fillColor=#f5f5f5;fontColor=#333333;strokeColor=#666666;fontSize=18;" vertex="1" parent="1">
          <mxGeometry x="-2630" y="-1146.8" width="120" height="196.8" as="geometry" />
        </mxCell>
        <mxCell id="QlwB00z0-otb056kdUWZ-7" value="SFTP" style="rounded=0;whiteSpace=wrap;html=1;fillColor=#f5f5f5;fontColor=#333333;strokeColor=#666666;fontSize=18;" vertex="1" parent="1">
          <mxGeometry x="-2630" y="-930" width="120" height="180" as="geometry" />
        </mxCell>
        <mxCell id="QlwB00z0-otb056kdUWZ-8" value="Q2" style="shape=step;perimeter=stepPerimeter;whiteSpace=wrap;html=1;fixedSize=1;size=10;fillColor=#f5f5f5;strokeColor=#666666;fontSize=18;fontStyle=1;align=center;rounded=0;fontColor=#333333;" vertex="1" parent="1">
          <mxGeometry x="-2500" y="-1240" width="1610" height="74.4" as="geometry" />
        </mxCell>
        <mxCell id="QlwB00z0-otb056kdUWZ-11" value="T5 - Вывод ставок пользователю системы колл-центра" style="shape=rect;fillColor=#ffe6cc;strokeColor=#d79b00;fontSize=18;html=1;whiteSpace=wrap;align=center;verticalAlign=top;spacing=5;rounded=0;" vertex="1" parent="1">
          <mxGeometry x="-1860" y="-640" width="940" height="50" as="geometry" />
        </mxCell>
        <mxCell id="QlwB00z0-otb056kdUWZ-12" value="T4 - Получение ставок через API интеграции АБС" style="shape=rect;fillColor=#ffe6cc;strokeColor=#d79b00;fontSize=18;html=1;whiteSpace=wrap;align=center;verticalAlign=top;spacing=5;rounded=0;" vertex="1" parent="1">
          <mxGeometry x="-2060" y="-720" width="480" height="60" as="geometry" />
        </mxCell>
        <mxCell id="QlwB00z0-otb056kdUWZ-13" value="T6 - Получение файлов с SFTP для операторов партнера" style="shape=rect;fillColor=#ffe6cc;strokeColor=#d79b00;fontSize=18;html=1;whiteSpace=wrap;align=center;verticalAlign=top;spacing=5;rounded=0;" vertex="1" parent="1">
          <mxGeometry x="-1560" y="-470" width="640" height="50" as="geometry" />
        </mxCell>
        <mxCell id="QlwB00z0-otb056kdUWZ-14" value="Система колл-центра" style="rounded=0;whiteSpace=wrap;html=1;fillColor=#f5f5f5;fontColor=#333333;strokeColor=#666666;fontSize=18;" vertex="1" parent="1">
          <mxGeometry x="-2630" y="-730" width="120" height="180" as="geometry" />
        </mxCell>
        <mxCell id="QlwB00z0-otb056kdUWZ-15" value="Система&amp;nbsp; партнерского колл-центра" style="rounded=0;whiteSpace=wrap;html=1;fillColor=#f5f5f5;fontColor=#333333;strokeColor=#666666;fontSize=18;" vertex="1" parent="1">
          <mxGeometry x="-2630" y="-530" width="120" height="190" as="geometry" />
        </mxCell>
        <mxCell id="QlwB00z0-otb056kdUWZ-16" value="T3 - Развернуть SFTP сервер" style="shape=rect;fillColor=#ffe6cc;strokeColor=#d79b00;fontSize=18;html=1;whiteSpace=wrap;align=center;verticalAlign=top;spacing=5;rounded=0;" vertex="1" parent="1">
          <mxGeometry x="-2400" y="-910" width="280" height="60" as="geometry" />
        </mxCell>
      </root>
    </mxGraphModel>
  </diagram>
</mxfile>
